# Blender 3.1.0
# www.blender.org
mtllib TakeOutBox.mtl
o Cube
v -1.000000 -0.036564 1.000000
v -1.190551 1.963436 1.190551
v -1.000000 -0.036564 -1.000000
v -1.190551 1.963436 -1.190551
v 1.000000 -0.036564 1.000000
v 1.190551 1.963436 1.190551
v 1.000000 -0.036564 -1.000000
v 1.190551 1.963436 -1.190551
v -1.190551 1.963436 -1.190551
v -2.190551 1.109688 -1.190551
v -2.190551 1.109688 1.190551
v -0.836749 0.325333 0.836749
v -0.836749 0.325333 -0.836749
v 0.836749 0.325333 -0.836749
v 0.836749 0.325333 0.836749
v -1.187898 1.225917 2.269397
v 1.193205 1.225917 2.269397
v 2.180117 1.309798 1.147615
v 1.190551 1.963436 -1.190551
v 1.190551 1.963436 -1.190551
v 2.180117 1.309798 -1.233488
v 1.190551 1.963436 -1.190551
v 1.139270 1.841818 -2.181843
v -1.241832 1.841818 -2.181843
v -0.262247 0.385241 0.047606
v -1.754153 3.328155 -1.240739
v -0.330706 0.322348 -0.013706
v -1.866400 3.225031 -1.341268
v -0.187951 0.385241 -0.035350
v -1.632335 3.328155 -1.376756
v -0.256410 0.322348 -0.096662
v -1.744583 3.225031 -1.477286
v -0.169505 0.274933 -0.016436
v -1.421933 3.217846 -1.538618
v -0.226604 0.212039 -0.088446
v -1.515554 3.114723 -1.656689
v -0.082246 0.274933 -0.085626
v -1.278859 3.217846 -1.652065
v -0.139345 0.212039 -0.157636
v -1.372480 3.114723 -1.770136
v 1.000000 -0.037980 1.000000
v -1.000000 -0.034815 1.000000
v -1.000996 -0.036659 -1.000000
v -1.000996 -0.036659 1.000000
v -1.191547 1.963341 1.190551
v -1.191547 1.963341 -1.190551
vn -0.0948 0.9955 -0.0000
vn -0.0000 -0.0948 -0.9955
vn 0.9955 -0.0948 -0.0000
vn -0.0000 -0.0948 0.9955
vn -0.0000 -1.0000 -0.0000
vn -0.0000 0.2111 -0.9775
vn -0.6493 0.7605 -0.0000
vn -0.0000 1.0000 -0.0000
vn -0.0000 0.2111 0.9775
vn -0.9775 0.2111 -0.0000
vn 0.9775 0.2111 -0.0000
vn 0.5512 0.8344 -0.0000
vn -0.0000 0.8255 0.5644
vn -0.0000 0.9926 -0.1218
vn -0.6629 -0.0083 0.7487
vn -0.6105 -0.5730 -0.5468
vn 0.6714 -0.0083 -0.7411
vn 0.6189 0.5564 0.5543
vn 0.4207 -0.8252 0.3768
vn -0.4207 0.8252 -0.3768
vn -0.7800 -0.0083 0.6257
vn -0.5092 -0.5730 -0.6422
vn 0.7871 -0.0083 -0.6168
vn 0.5162 0.5564 0.6511
vn 0.3509 -0.8252 0.4425
vn -0.3509 0.8252 -0.4425
vn -0.9955 -0.0948 -0.0000
vn 0.0949 -0.9955 -0.0000
vn 0.0090 -0.0940 -0.9955
vn 0.0090 -0.0940 0.9955
vt -0.004441 0.010159
vt 0.880556 0.930556
vt 0.965172 0.959874
vt 0.012851 1.001023
vt 0.978997 0.946461
vt 0.934275 0.965511
vt 0.989505 0.965530
vt 0.965230 0.944059
vt 1.000092 0.002326
vt 0.936815 0.928887
vt 0.948421 0.959649
vt 0.999243 0.996388
vt 0.978997 0.946408
vt 0.946916 0.943710
vt 0.000947 0.005381
vt 0.989687 -0.010907
vt 0.880556 0.946296
vt 0.000986 0.999377
vt 1.010802 0.986093
vt 0.978997 0.965508
vt 0.918151 0.946464
vt 0.997802 0.924126
vt 0.989505 0.946482
vt 0.003796 0.005081
vt 0.995398 -0.004485
vt 0.936815 0.944886
vt 0.006651 0.996204
vt 1.006340 0.997847
vt 0.978997 0.927360
vt 0.918151 0.965511
vt 0.934275 0.946464
vt 0.998199 0.885634
vt 0.944794 0.946464
vt 0.944794 0.965511
vt 0.965591 0.949291
vt 0.959917 0.960244
vt 0.962617 0.956337
vt 0.946530 0.960244
vt 0.965591 0.943577
vt 0.950689 0.956228
vt 0.946530 0.973630
vt 0.965591 0.930191
vt 0.904745 0.962681
vt 0.965591 0.962678
vt 0.959917 0.973630
vt 0.904745 0.949294
vt 0.979051 0.965508
vt 0.979051 0.946461
vt 0.988315 0.923782
vt 0.988315 0.904735
vt 0.997802 0.905078
vt 0.998199 0.904681
vt 0.988315 0.904623
vt 0.988315 0.885575
vt 0.256094 4.257715
vt 0.967396 0.907071
vt -9.753256 0.466559
vt -10.019320 7.820559
vt -9.720071 -1.235815
vt 0.576065 4.144486
vt 0.966766 0.906441
vt -9.228692 0.280896
vt 10.652227 0.504641
vt -10.452176 -1.244055
vt 0.567617 4.378054
vt 0.968026 0.906441
vt 10.372368 8.241619
vt -9.508585 8.017873
vt -9.729864 -0.965005
vt 0.887554 4.264822
vt 0.967396 0.905811
vt 11.162942 0.701955
vt 10.896963 8.055958
vt -10.461974 -0.973245
vt 0.492668 0.317181
vt 0.535589 -3.489038
vt 0.925612 0.907072
vt 0.034786 0.143753
vt -9.739313 0.073636
vt -10.442019 -1.524807
vt 0.507302 0.312001
vt 0.855531 -3.602268
vt 0.924982 0.906442
vt 0.058783 0.135261
vt 10.932420 -7.242359
vt -10.451817 -1.254000
vt 0.847079 -3.368701
vt 0.926242 0.906442
vt 10.651364 0.494673
vt -9.228603 0.270937
vt -9.709912 -1.516568
vt 1.166993 -3.481932
vt 0.925612 0.905813
vt 11.443195 -7.045033
vt 11.175962 0.309024
vt -9.719709 -1.245760
vt 0.001267 0.003729
vt 0.948151 0.960000
vt 0.995918 -0.002267
vt 0.965537 0.960190
vt 1.001304 1.006341
vt 0.965537 0.943655
vt 0.003153 0.999590
vt 0.946530 0.943375
s 0
usemtl Material
f 2/8/1 4/14/1 46/104/1 45/102/1
f 3/9/2 4/12/2 8/27/2 7/24/2
f 7/25/3 8/28/3 6/18/3 5/15/3
f 5/16/4 6/19/4 2/4/4 1/1/4
usemtl Material.001
f 3/10/5 7/26/5 5/17/5 1/2/5
usemtl Material.002
f 2/5/6 6/20/6 15/44/6 12/35/6
usemtl Material
f 10/33/7 11/34/7 2/6/7 9/31/7
usemtl Material.002
f 14/41/8 13/38/8 12/36/8 15/45/8
f 8/29/9 4/13/9 13/39/9 14/42/9
f 6/21/10 8/30/10 14/43/10 15/46/10
f 4/14/11 2/8/11 12/37/11 13/40/11
usemtl Material
f 6/22/12 18/49/12 21/50/12 22/51/12
f 17/48/13 6/23/13 2/7/13 16/47/13
f 23/53/14 24/54/14 9/32/14 22/52/14
usemtl Material.002
f 25/55/15 26/57/15 28/62/15 27/60/15
f 27/60/16 28/63/16 32/72/16 31/70/16
f 31/70/17 32/73/17 30/67/17 29/65/17
f 29/65/18 30/68/18 26/58/18 25/55/18
usemtl Material
f 27/61/19 31/71/19 29/66/19 25/56/19
usemtl Material.002
f 32/74/20 28/64/20 26/59/20 30/69/20
f 33/75/21 34/78/21 36/84/21 35/81/21
f 35/82/22 36/85/22 40/94/22 39/92/22
f 39/92/23 40/95/23 38/89/23 37/87/23
f 37/87/24 38/90/24 34/79/24 33/76/24
usemtl Material
f 35/83/25 39/93/25 37/88/25 33/77/25
usemtl Material.002
f 40/96/26 36/86/26 34/80/26 38/91/26
usemtl Material
f 44/99/27 45/101/27 46/103/27 43/97/27
f 3/11/28 1/3/28 44/100/28 43/98/28
usemtl Material.001
f 4/14/29 3/11/29 43/98/29 46/104/29
usemtl Material
f 1/3/30 2/8/30 45/102/30 44/100/30
l 4 9
l 8 19
l 19 20
l 20 21
l 20 22
l 42 41
